<?xml version="1.0" standalone="no"?>
<!DOCTYPE svg PUBLIC "-//W3C//DTD SVG 20010904//EN"
 "http://www.w3.org/TR/2001/REC-SVG-20010904/DTD/svg10.dtd">
<svg version="1.0" xmlns="http://www.w3.org/2000/svg"
 width="780.000000pt" height="780.000000pt" viewBox="0 0 780.000000 780.000000"
 preserveAspectRatio="xMidYMid meet">
<metadata>
Created by potrace 1.14, written by Peter Selinger 2001-2017
</metadata>
<g transform="translate(0.000000,780.000000) scale(0.100000,-0.100000)"
fill="#000000" stroke="none">
<path d="M2590 7351 c0 -6 7 -8 15 -5 21 8 19 -13 -2 -24 -28 -15 -177 -16
-168 -2 5 9 2 9 -11 3 -23 -12 -94 -5 -112 9 -23 20 -331 -17 -356 -43 -6 -5
-20 -9 -32 -9 -13 0 -30 -7 -38 -16 -9 -8 -24 -14 -33 -13 -37 3 -52 -2 -81
-25 -41 -36 -87 -129 -106 -216 -24 -116 -36 -540 -51 -1895 -5 -524 15 -3877
25 -4010 15 -204 65 -331 155 -392 88 -60 268 -93 615 -114 102 -6 203 -12
225 -14 73 -7 1978 -27 2705 -29 777 -1 830 2 930 52 59 29 93 70 110 132 6
21 20 136 33 256 l22 219 0 2565 c0 2392 -1 2578 -18 2765 -40 438 -86 574
-221 642 -102 52 -300 82 -581 88 -110 3 -225 9 -255 14 l-55 9 50 2 c71 4 35
8 -260 25 -395 23 -721 30 -1652 33 -564 2 -853 -1 -853 -7z m107 -17 c-3 -3
-12 -4 -19 -1 -8 3 -5 6 6 6 11 1 17 -2 13 -5z m-726 -103 c0 -3 2 -15 4 -26
5 -26 -5 -65 -16 -65 -5 0 -9 8 -9 18 0 14 -2 15 -9 2 -6 -8 -8 -17 -6 -20 2
-4 -12 -13 -31 -22 -31 -14 -49 -8 -23 7 13 8 6 30 -9 31 -7 1 -14 2 -17 3 -3
0 2 15 11 32 12 25 18 29 25 18 5 -8 9 -11 10 -6 1 7 5 23 8 31 2 7 61 4 62
-3z m3441 -561 c107 -41 202 -120 246 -207 61 -119 68 -282 17 -410 -39 -100
-114 -189 -189 -226 -69 -34 -187 -60 -238 -54 -21 3 -38 1 -38 -4 0 -5 -40
-7 -90 -5 -49 2 -90 1 -90 -3 0 -11 -94 -33 -113 -26 -9 4 -30 0 -47 -8 -17
-9 -28 -11 -25 -6 4 5 0 9 -9 9 -8 0 -22 3 -32 7 -12 4 -15 3 -10 -5 4 -7 2
-12 -3 -12 -6 0 -11 -7 -11 -15 0 -17 -16 -20 -25 -5 -4 6 -16 8 -28 4 -20 -6
-20 -5 -8 10 16 19 6 35 -11 18 -13 -13 -32 -16 -24 -4 3 4 -10 7 -27 5 -18
-1 -53 -3 -79 -4 -29 0 -48 -6 -48 -12 0 -8 -4 -7 -9 2 -5 7 -13 11 -19 7 -5
-3 -12 0 -15 8 -4 9 -21 13 -56 11 -33 -1 -51 3 -51 10 0 14 -550 26 -1161 25
-436 -1 -478 4 -580 67 -174 107 -252 297 -208 505 37 174 187 308 378 338 31
4 618 6 1305 3 1180 -4 1252 -5 1298 -23z m168 -870 c8 -5 11 -10 5 -10 -5 0
-17 5 -25 10 -8 5 -10 10 -5 10 6 0 17 -5 25 -10z m-223 -36 c-3 -3 -12 -4
-19 -1 -8 3 -5 6 6 6 11 1 17 -2 13 -5z m393 -4 c0 -5 -4 -10 -10 -10 -5 0
-10 5 -10 10 0 6 5 10 10 10 6 0 10 -4 10 -10z m-1423 -6 c-3 -3 -12 -4 -19
-1 -8 3 -5 6 6 6 11 1 17 -2 13 -5z m720 -16 c-3 -8 -6 -5 -6 6 -1 11 2 17 5
13 3 -3 4 -12 1 -19z m-377 -33 c0 -6 -12 -11 -26 -12 -25 -2 -25 -1 -8 12 21
16 36 15 34 0z m-1040 -21 c0 -8 -5 -12 -10 -9 -6 4 -8 11 -5 16 9 14 15 11
15 -7z m-620 -84 c0 -5 -2 -10 -4 -10 -3 0 -8 5 -11 10 -3 6 -1 10 4 10 6 0
11 -4 11 -10z m1133 -791 l457 4 0 -42 c0 -23 -7 -53 -16 -66 -9 -13 -20 -54
-24 -91 -5 -37 -12 -70 -17 -73 -5 -3 -9 -21 -8 -39 0 -19 -3 -36 -7 -39 -11
-6 -10 -51 1 -57 10 -6 9 -24 0 -41 -4 -5 -5 -18 -4 -27 2 -13 -4 -18 -21 -18
-13 0 -24 -5 -24 -11 0 -5 5 -7 10 -4 21 13 45 -28 45 -77 0 -27 -1 -44 -3
-39 -2 5 -10 7 -18 4 -12 -4 -11 -9 6 -23 22 -19 27 -40 9 -40 -6 0 -8 -13 -5
-31 3 -20 -2 -43 -15 -65 -10 -19 -16 -35 -14 -35 3 -1 10 -2 17 -3 15 -1 22
-23 9 -30 -6 -4 -8 -14 -5 -24 4 -13 3 -14 -4 -4 -7 11 -12 10 -26 -3 -10 -11
-16 -12 -16 -4 0 7 -3 10 -6 6 -3 -3 -2 -13 4 -23 6 -11 11 -13 16 -5 4 6 12
11 18 11 6 0 4 -8 -5 -18 -10 -10 -14 -22 -10 -26 4 -3 -6 -7 -23 -6 -69 0
-79 -1 -91 -12 -7 -6 -13 -6 -13 -1 0 5 -23 8 -52 6 -29 -2 -61 -4 -70 -4 -17
0 -26 -19 -10 -19 5 0 17 -6 27 -14 17 -12 -2 -14 -145 -15 -90 0 -175 3 -189
6 -25 7 -25 8 9 14 l35 6 -37 2 c-26 1 -40 -4 -47 -16 -6 -11 -11 -13 -11 -5
0 8 -8 10 -24 6 -18 -4 -25 -1 -28 12 -3 15 -5 16 -18 3 -20 -18 -40 -22 -40
-8 0 8 -4 8 -12 1 -7 -5 -26 -9 -43 -8 -24 1 -33 -5 -46 -28 -27 -51 -37 -43
-33 26 15 234 24 517 24 740 0 244 1 260 18 252 9 -5 223 -7 475 -5z m1897
-70 c0 -43 -3 -52 -21 -56 -14 -4 -19 -12 -16 -24 3 -11 1 -19 -3 -19 -11 0
-32 -106 -30 -154 0 -31 -2 -37 -15 -33 -11 5 -15 0 -15 -18 0 -14 5 -25 10
-25 15 0 12 -57 -4 -72 -9 -9 -11 -21 -5 -43 6 -18 5 -31 -1 -33 -5 -2 -4 -9
3 -17 7 -7 15 -11 20 -8 4 2 7 0 7 -6 0 -6 -11 -13 -24 -17 -22 -5 -24 -11
-23 -57 1 -29 6 -55 12 -59 6 -5 5 -8 -2 -8 -8 0 -13 -13 -13 -30 0 -18 -6
-33 -15 -36 -8 -4 -15 -13 -15 -21 0 -8 5 -11 10 -8 12 8 13 -5 0 -25 -5 -9
-5 -19 1 -27 13 -15 -20 -65 -39 -58 -10 4 -10 0 -1 -16 6 -11 8 -23 5 -27 -3
-3 -6 0 -6 8 0 9 -4 9 -12 2 -7 -5 -31 -9 -53 -8 -22 1 -46 -2 -53 -8 -8 -6
-17 -5 -23 1 -6 6 -26 7 -52 2 -23 -4 -103 -10 -177 -14 -74 -4 -139 -8 -145
-8 -5 -1 -9 3 -8 10 2 7 -4 10 -12 7 -8 -4 -12 -10 -9 -15 3 -5 -8 -9 -25 -9
-16 0 -33 5 -36 10 -3 6 -11 10 -16 10 -6 0 -7 -5 -4 -11 4 -6 -3 -13 -16 -17
l-24 -6 25 -7 c18 -5 8 -7 -32 -8 -36 -1 -58 3 -58 10 0 6 -7 8 -15 5 -14 -5
-15 3 -9 57 3 34 8 253 11 487 2 234 6 431 8 438 3 9 104 12 460 12 l455 0 0
-51z m-2934 24 c-8 -25 -25 -153 -26 -183 0 -33 -6 -71 -15 -92 -3 -9 -7 -49
-8 -90 -1 -40 -6 -76 -12 -80 -6 -5 -4 -12 5 -18 13 -8 13 -13 -1 -38 -8 -15
-15 -37 -14 -47 1 -14 -5 -20 -22 -21 -13 -1 -20 2 -17 8 4 6 1 9 -7 6 -15 -5
-14 -61 2 -66 14 -5 11 -22 -4 -22 -15 0 -12 -73 5 -108 10 -19 7 -27 -20 -55
-18 -18 -32 -38 -32 -43 0 -6 -6 -11 -12 -12 -13 0 -51 -5 -135 -16 -24 -4
-44 -2 -48 4 -9 14 -82 12 -92 -2 -9 -14 -53 -19 -53 -6 0 11 -43 10 -56 -1
-5 -4 -25 -11 -44 -15 -21 -4 -30 -3 -21 3 9 6 10 11 2 15 -6 4 -11 2 -11 -3
0 -16 -83 -8 -97 9 -11 13 -12 13 -13 -2 0 -17 -15 -19 -37 -5 -7 5 -13 4 -13
-2 0 -5 9 -13 20 -16 11 -3 20 -11 20 -16 0 -6 -13 -1 -28 10 -22 15 -32 17
-40 9 -9 -9 -18 -9 -36 0 -17 8 -27 8 -32 1 -3 -6 -12 -8 -20 -5 -9 4 -22 -7
-34 -27 -26 -45 -40 -58 -51 -52 -5 4 -9 203 -9 501 l0 494 506 0 c477 0 505
-1 500 -17z m-641 -913 c3 -5 1 -10 -4 -10 -6 0 -11 5 -11 10 0 6 2 10 4 10 3
0 8 -4 11 -10z m1885 -14 c0 -3 -4 -8 -10 -11 -5 -3 -10 -1 -10 4 0 6 5 11 10
11 6 0 10 -2 10 -4z m770 -70 c0 -13 -7 -27 -16 -30 -21 -8 -33 2 -15 13 11 7
11 10 0 16 -11 8 -1 16 29 24 1 1 2 -10 2 -23z m-2610 -396 c44 -1 230 -3 417
-4 l141 0 -2 -49 c-1 -27 2 -51 6 -53 4 -3 8 -10 8 -15 0 -6 -4 -7 -10 -4 -6
3 -7 -1 -4 -9 3 -9 11 -13 16 -10 6 4 -2 -14 -16 -39 -14 -27 -21 -49 -16 -52
6 -4 10 -11 10 -16 0 -6 -4 -7 -10 -4 -5 3 -10 2 -10 -3 0 -6 7 -12 15 -16 13
-5 13 -10 -1 -46 -9 -23 -14 -43 -11 -47 3 -3 0 -12 -8 -20 -8 -8 -15 -20 -15
-26 0 -7 4 -6 11 3 8 11 9 7 4 -17 -5 -24 -3 -33 6 -33 10 0 10 -3 1 -12 -7
-7 -12 -29 -12 -50 0 -21 -4 -38 -10 -38 -5 0 -10 -9 -10 -21 0 -11 -5 -17
-10 -14 -6 4 -5 -4 1 -19 9 -20 9 -32 -3 -57 -11 -21 -13 -41 -8 -65 4 -19 4
-32 0 -29 -5 3 -8 -9 -8 -26 1 -17 -5 -35 -12 -39 -8 -5 -11 -19 -7 -39 5 -25
4 -29 -11 -24 -14 5 -15 3 -4 -8 16 -18 15 -29 -4 -29 -8 0 -12 5 -9 10 9 15
-16 12 -34 -4 -13 -12 -77 -15 -346 -17 -181 -1 -337 -4 -347 -7 -9 -2 -19
-15 -22 -28 -4 -13 -13 -24 -21 -24 -8 0 -15 -9 -15 -20 0 -11 -6 -20 -14 -20
-20 0 -21 1026 -1 1038 11 6 254 8 375 2z m2090 -39 c0 -63 -12 -119 -25 -114
-8 2 -17 -6 -21 -19 -9 -27 -9 -106 0 -115 3 -3 6 -11 6 -17 0 -7 -3 -7 -8 1
-5 8 -13 8 -32 -2 -14 -8 -19 -14 -12 -15 7 0 10 -5 7 -10 -3 -6 1 -13 9 -16
12 -5 13 -9 3 -25 -10 -16 -9 -21 1 -28 11 -7 10 -9 -2 -14 -12 -5 -15 -15
-11 -34 3 -16 2 -22 -1 -15 -12 26 -24 10 -24 -35 0 -27 -4 -43 -8 -36 -4 7
-13 9 -19 5 -8 -5 -2 -14 17 -27 30 -20 38 -35 20 -35 -5 0 -10 -12 -10 -26 0
-14 4 -23 10 -19 14 9 12 -9 -2 -23 -10 -10 -10 -15 -1 -20 8 -5 9 -13 3 -22
-5 -8 -6 -27 -3 -42 3 -18 1 -28 -6 -28 -9 0 -9 -5 -1 -20 9 -16 7 -29 -9 -58
-26 -49 -32 -81 -20 -104 7 -14 6 -18 -5 -18 -8 0 -18 5 -21 10 -3 6 -15 10
-26 10 -11 0 -18 -4 -15 -9 6 -8 -25 -21 -53 -21 -11 0 -11 3 -1 15 11 13 8
15 -20 15 -25 0 -30 -3 -22 -13 13 -15 20 -13 -128 -26 -63 -6 -109 -6 -116 0
-6 5 -13 6 -17 3 -3 -3 -78 -6 -167 -6 -104 -1 -163 -5 -168 -12 -4 -6 -26
-21 -49 -33 l-43 -21 0 361 c0 199 3 433 7 519 l6 158 156 3 c86 1 306 4 489
5 l332 2 0 -29z m1394 23 c19 -7 21 -50 6 -121 -9 -43 -17 -111 -19 -154 -1
-9 -14 -30 -31 -47 -16 -18 -30 -37 -29 -44 0 -7 5 -3 11 10 6 12 14 22 17 22
9 0 3 -98 -8 -118 -6 -11 -6 -24 -1 -32 5 -8 5 -19 -1 -26 -17 -21 -42 -128
-40 -175 1 -25 -5 -61 -13 -80 -9 -19 -15 -29 -16 -24 0 12 -30 -43 -30 -56 0
-6 9 -5 20 1 11 6 20 8 20 4 0 -10 -44 -43 -59 -44 -8 0 -23 -8 -34 -17 -15
-14 -34 -17 -93 -16 -41 2 -74 0 -74 -4 0 -3 8 -12 18 -19 15 -12 13 -13 -12
-4 -16 6 -37 8 -45 4 -36 -15 -152 -31 -236 -33 -49 -1 -97 -4 -107 -7 -9 -3
-19 0 -23 6 -5 8 -11 8 -21 -1 -11 -9 -14 -9 -14 0 0 7 -6 9 -12 5 -9 -5 -10
-4 -3 4 6 7 23 13 38 14 24 2 25 4 12 17 -12 12 -18 13 -27 3 -7 -7 -20 -12
-29 -12 -9 0 -25 -12 -35 -27 -42 -65 -48 -63 -41 12 16 166 27 419 29 670 2
149 7 276 11 283 6 9 104 12 432 12 233 0 430 -3 439 -6z m-1477 -496 c-3 -7
-5 -2 -5 12 0 14 2 19 5 13 2 -7 2 -19 0 -25z m-1477 -68 c0 -5 -5 -10 -11
-10 -5 0 -7 5 -4 10 3 6 8 10 11 10 2 0 4 -4 4 -10z m43 -874 c23 -7 27 -14
27 -42 0 -26 -4 -32 -15 -28 -11 5 -15 -1 -15 -24 0 -17 -4 -33 -9 -36 -5 -3
-8 -36 -6 -73 1 -38 -2 -74 -8 -80 -6 -9 -5 -13 4 -13 11 -1 10 -3 -2 -13 -9
-7 -16 -19 -16 -27 0 -8 -4 -27 -8 -42 -5 -18 -3 -28 4 -28 6 0 11 -7 11 -15
0 -8 -4 -15 -10 -15 -5 0 -10 -5 -10 -11 0 -7 -8 -18 -17 -26 -17 -13 -16 -14
5 -8 24 7 29 -4 10 -23 -7 -7 -9 -12 -5 -12 3 0 2 -12 -3 -26 -6 -16 -7 -31
-2 -38 11 -14 12 -47 1 -40 -12 7 -22 -42 -16 -80 4 -24 0 -37 -13 -49 -17
-14 -19 -14 -23 1 -3 10 -5 6 -6 -10 -2 -44 -11 -60 -27 -47 -11 9 -14 8 -14
-5 0 -12 -7 -16 -22 -14 -13 2 -22 -2 -21 -8 2 -8 -18 -12 -55 -12 -335 -2
-591 -11 -610 -21 -11 -6 -22 -21 -24 -33 -2 -13 -11 -24 -22 -26 -18 -4 -19
1 -13 114 4 66 0 261 -8 434 -8 173 -15 331 -15 350 l0 35 462 -1 c255 0 475
-4 491 -8z m537 -8 c0 9 103 12 480 12 l480 0 -6 -27 c-4 -16 -14 -34 -23 -41
-14 -11 -14 -14 -1 -22 13 -8 12 -11 -5 -24 -11 -9 -15 -16 -9 -16 7 0 9 -11
6 -25 -3 -16 0 -25 9 -25 8 0 6 -5 -6 -14 -22 -15 -28 -45 -14 -62 7 -9 5 -15
-7 -22 -9 -5 -12 -12 -7 -15 12 -8 6 -76 -8 -93 -7 -8 -6 -14 1 -19 6 -4 7
-12 3 -18 -5 -7 -8 -58 -7 -114 0 -58 -3 -100 -8 -97 -5 3 -8 -7 -6 -23 2 -18
-1 -27 -9 -26 -7 2 -13 0 -14 -5 -4 -38 -12 -69 -21 -79 -13 -16 4 -17 20 -1
8 8 12 8 12 1 0 -6 -7 -14 -16 -17 -11 -4 -15 -14 -12 -31 4 -21 1 -25 -17
-25 -13 0 -25 -6 -28 -14 -4 -10 -33 -16 -94 -21 -48 -4 -91 -13 -95 -19 -5
-7 -47 -10 -123 -9 -65 1 -115 -2 -115 -8 0 -5 -70 -9 -164 -9 -175 0 -176 0
-176 51 0 10 -7 19 -15 19 -18 0 -19 -4 -3 -30 11 -16 9 -26 -6 -55 -17 -31
-39 -49 -34 -27 1 4 -4 19 -12 34 -13 28 -7 64 9 53 5 -3 13 0 17 6 4 6 0 15
-8 20 -11 6 -14 21 -13 46 2 21 6 206 10 412 3 206 9 379 12 384 3 5 9 3 14
-4 6 -10 9 -11 9 -1z m2483 -35 c11 -18 -11 -244 -24 -261 -8 -9 -15 -28 -16
-42 -1 -14 -5 -51 -8 -82 -6 -51 -9 -58 -28 -59 -16 0 -18 -2 -7 -7 17 -8 17
-7 6 -77 -4 -27 -13 -53 -19 -57 -9 -6 -8 -11 2 -17 12 -7 12 -13 3 -24 -7 -7
-9 -17 -5 -20 3 -4 -6 -7 -20 -7 -20 0 -27 -5 -27 -19 0 -11 5 -21 12 -23 8
-3 5 -11 -9 -23 -12 -10 -19 -23 -16 -28 3 -6 8 -26 10 -45 3 -28 1 -33 -12
-29 -9 4 -15 1 -15 -8 0 -8 7 -15 16 -15 8 0 13 -4 10 -9 -8 -13 -56 -10 -56
3 0 8 -3 8 -8 0 -10 -15 -42 -25 -42 -14 0 13 -47 13 -52 0 -4 -13 -119 -20
-140 -9 -14 7 -16 6 -12 -6 8 -20 0 -19 -21 2 -12 11 -19 13 -24 5 -10 -17
-221 -25 -221 -9 0 8 -3 8 -9 -1 -6 -11 -36 -13 -126 -10 l-118 3 -16 -32 c-9
-19 -24 -33 -35 -33 -16 0 -17 5 -10 48 5 26 9 238 9 472 0 272 4 428 10 432
13 10 1013 10 1018 1z m-56 -565 c-3 -8 -6 -5 -6 6 -1 11 2 17 5 13 3 -3 4
-12 1 -19z"/>
<path d="M1920 7220 c0 -5 5 -10 11 -10 5 0 7 5 4 10 -3 6 -8 10 -11 10 -2 0
-4 -4 -4 -10z"/>
<path d="M4153 6530 c-59 -36 -63 -54 -63 -307 0 -253 1 -257 64 -287 69 -33
152 -13 181 44 12 23 15 72 15 251 0 205 -2 224 -20 254 -38 61 -118 82 -177
45z"/>
<path d="M4880 6528 c-69 -47 -69 -49 -71 -299 -1 -158 2 -232 10 -248 30 -56
127 -78 197 -45 63 30 64 34 64 290 l0 232 -27 33 c-50 59 -118 74 -173 37z"/>
<path d="M4512 6524 c-48 -33 -52 -58 -52 -294 0 -284 7 -300 124 -300 47 0
61 4 88 29 l33 29 0 242 0 242 -37 34 c-32 29 -45 34 -86 34 -27 0 -57 -7 -70
-16z"/>
<path d="M5244 6526 c-51 -23 -62 -62 -70 -252 -9 -215 -2 -278 35 -315 31
-30 86 -45 128 -35 14 4 41 22 60 41 l34 34 -3 235 -3 236 -31 31 c-37 37
-101 48 -150 25z"/>
<path d="M4011 4568 c-70 -57 -95 -140 -76 -255 6 -33 15 -47 44 -66 55 -36
69 -39 159 -38 83 2 83 2 71 -20 -13 -26 -18 -32 -53 -72 -14 -16 -27 -34 -29
-40 -6 -17 -57 32 -57 55 0 22 -37 33 -85 24 -46 -9 -49 -18 -27 -68 25 -55
59 -86 113 -102 129 -39 238 83 247 274 7 154 -30 265 -107 317 -26 18 -48 23
-96 23 -56 0 -67 -4 -104 -32z m142 -115 c-2 -7 3 -10 11 -7 19 7 36 -26 36
-70 0 -44 -26 -60 -84 -53 -66 9 -82 48 -45 112 19 31 26 36 53 33 18 -2 30
-8 29 -15z"/>
<path d="M4090 4450 c0 -5 5 -10 10 -10 6 0 10 5 10 10 0 6 -4 10 -10 10 -5 0
-10 -4 -10 -10z"/>
<path d="M3881 4353 c-1 -18 4 -33 9 -33 12 0 12 17 0 45 -7 17 -9 15 -9 -12z"/>
<path d="M4415 3900 c3 -5 8 -10 11 -10 2 0 4 5 4 10 0 6 -5 10 -11 10 -5 0
-7 -4 -4 -10z"/>
<path d="M3890 3860 c0 -5 24 -10 53 -9 38 0 47 3 32 9 -28 12 -85 12 -85 0z"/>
<path d="M3845 3850 c-3 -5 -1 -10 4 -10 6 0 11 5 11 10 0 6 -2 10 -4 10 -3 0
-8 -4 -11 -10z"/>
<path d="M4053 3853 c9 -2 25 -2 35 0 9 3 1 5 -18 5 -19 0 -27 -2 -17 -5z"/>
<path d="M4159 3851 c9 -6 10 -10 2 -14 -7 -3 -7 -4 1 -3 7 2 23 0 34 -5 18
-6 21 -5 17 12 -3 10 -10 19 -15 19 -5 0 -6 -6 -2 -12 6 -10 4 -10 -7 0 -7 6
-20 12 -28 12 -13 0 -13 -2 -2 -9z"/>
<path d="M4108 3833 c7 -3 16 -2 19 1 4 3 -2 6 -13 5 -11 0 -14 -3 -6 -6z"/>
<path d="M5495 4580 c-4 -12 -5 -58 -3 -103 l3 -82 -97 -3 c-111 -3 -112 -5
-106 -93 l3 -44 102 -3 102 -3 -1 -119 c-1 -66 1 -123 4 -126 4 -3 31 -3 61 1
66 8 67 10 67 148 l0 97 99 0 c55 0 101 3 103 8 2 4 2 35 0 70 l-4 62 -99 0
c-116 0 -112 -4 -107 126 l3 79 -62 3 c-55 3 -62 1 -68 -18z"/>
<path d="M2530 4495 l0 -104 -112 -3 -113 -3 0 -65 0 -65 97 -3 c121 -3 126
-9 126 -135 1 -48 4 -91 7 -97 7 -11 81 -12 109 -1 17 6 18 18 17 120 l-2 113
98 -5 c54 -2 104 -2 111 0 8 3 12 27 12 74 l0 69 -110 0 -110 0 0 105 0 105
-65 0 -65 0 0 -105z"/>
<path d="M2970 4320 c0 -5 5 -10 11 -10 5 0 7 5 4 10 -3 6 -8 10 -11 10 -2 0
-4 -4 -4 -10z"/>
<path d="M2957 3983 c-4 -3 -7 -13 -7 -22 1 -13 3 -13 11 2 11 19 8 33 -4 20z"/>
<path d="M2527 3903 c-12 -12 -7 -22 8 -17 8 4 15 10 15 15 0 11 -14 12 -23 2z"/>
<path d="M2220 3359 c0 -5 11 -9 25 -9 14 0 25 2 25 4 0 2 -11 6 -25 8 -14 3
-25 1 -25 -3z"/>
<path d="M2298 3353 c12 -2 30 -2 40 0 9 3 -1 5 -23 4 -22 0 -30 -2 -17 -4z"/>
<path d="M2568 3353 c7 -3 16 -2 19 1 4 3 -2 6 -13 5 -11 0 -14 -3 -6 -6z"/>
<path d="M3037 3336 c-3 -8 0 -17 7 -19 10 -4 12 1 9 14 -6 23 -9 24 -16 5z"/>
<path d="M2563 3148 l-33 -20 0 -99 0 -99 -110 0 c-123 0 -114 7 -110 -80 1
-25 6 -51 12 -57 7 -9 42 -13 109 -13 l99 0 0 -94 c0 -52 3 -101 6 -110 5 -12
21 -16 65 -16 l59 0 0 110 0 110 110 0 110 0 0 75 c0 53 -4 75 -12 76 -7 0
-56 1 -108 2 l-95 2 -3 90 c-3 81 -5 92 -29 117 -31 32 -28 32 -70 6z"/>
<path d="M4063 3160 c-30 -12 -66 -37 -87 -60 -30 -34 -36 -47 -36 -86 0 -63
13 -84 55 -84 52 0 65 9 65 44 1 45 24 70 64 70 47 0 66 -19 66 -64 0 -48 -20
-65 -77 -65 -46 0 -44 2 -47 -68 -2 -39 4 -46 48 -49 20 -1 40 -6 42 -10 3 -5
9 -6 14 -3 12 8 21 -11 25 -51 2 -28 -3 -39 -21 -51 -13 -8 -28 -12 -34 -8 -6
4 -17 2 -25 -5 -22 -19 -55 5 -55 40 0 45 -25 63 -83 57 -27 -2 -53 -10 -57
-17 -10 -16 8 -66 38 -108 13 -18 21 -36 18 -39 -6 -6 26 -32 66 -52 36 -18
140 -8 183 19 41 26 85 106 85 157 0 25 -11 60 -28 93 l-28 52 28 56 c22 43
27 63 22 91 -12 67 -93 148 -156 156 -19 3 -54 -3 -85 -15z"/>
<path d="M3819 2855 c0 -16 -3 -42 -5 -57 -3 -16 0 -28 5 -28 11 0 19 87 9
103 -5 7 -8 -1 -9 -18z"/>
<path d="M4470 2620 c0 -5 5 -10 10 -10 6 0 10 5 10 10 0 6 -4 10 -10 10 -5 0
-10 -4 -10 -10z"/>
<path d="M4245 2410 c-3 -5 3 -10 14 -10 12 0 21 5 21 10 0 6 -6 10 -14 10 -8
0 -18 -4 -21 -10z"/>
<path d="M5310 2918 c-16 -6 -20 -17 -20 -52 0 -81 -16 -76 251 -76 l239 0 0
71 0 70 -225 -3 c-124 -2 -234 -6 -245 -10z"/>
<path d="M5295 2739 c-4 -6 -4 -13 -1 -17 12 -11 508 -4 520 8 5 5 8 11 5 11
-2 1 -120 3 -261 5 -173 3 -259 0 -263 -7z"/>
<path d="M5334 2442 c-14 -9 -26 -42 -15 -42 5 0 11 7 15 15 3 8 16 15 28 15
13 0 30 5 38 10 11 7 6 10 -20 10 -19 0 -40 -4 -46 -8z"/>
<path d="M2537 1753 c-4 -3 -7 -48 -7 -99 l0 -92 -30 -7 c-17 -4 -65 -5 -106
-4 -60 3 -77 0 -84 -12 -10 -18 -8 -124 3 -135 12 -12 206 -20 211 -9 3 5 5
-31 5 -82 1 -81 4 -95 23 -113 23 -21 58 -27 58 -10 0 6 15 10 33 10 l33 0 -6
53 c-3 29 -4 74 -2 100 l4 47 60 0 c37 0 57 -4 53 -10 -3 -5 -2 -10 4 -10 5 0
13 5 16 10 3 6 22 10 41 10 l34 0 0 79 0 78 -102 -1 -103 -1 -3 103 -3 102
-63 0 c-34 0 -66 -3 -69 -7z"/>
<path d="M2890 1516 c0 -9 5 -16 10 -16 6 0 10 4 10 9 0 6 -4 13 -10 16 -5 3
-10 -1 -10 -9z"/>
<path d="M3855 1531 l-30 -6 -3 -83 -3 -82 63 0 c264 -2 464 2 471 9 5 5 9 30
9 55 1 25 5 46 10 46 4 0 8 5 8 11 0 5 -4 8 -9 4 -5 -3 -11 7 -13 22 l-3 28
-235 1 c-129 1 -248 -2 -265 -5z"/>
<path d="M3818 1253 c-30 -5 -35 -15 -15 -30 18 -13 77 -16 77 -4 0 6 -15 12
-32 12 -18 1 -25 3 -15 6 9 2 17 9 17 14 0 5 -1 8 -2 8 -2 -1 -15 -4 -30 -6z"/>
<path d="M5324 1520 c-12 -5 -24 -20 -28 -35 -10 -38 -6 -275 5 -275 4 0 8 28
8 63 0 34 0 72 0 84 l1 22 255 -4 c280 -6 314 0 337 49 16 36 -1 68 -45 89
-30 14 -71 17 -274 16 -131 0 -248 -4 -259 -9z"/>
<path d="M6001 1386 c-8 -9 -8 -21 -2 -37 10 -24 11 -22 16 29 3 26 1 27 -14
8z"/>
<path d="M5960 1281 c0 -5 5 -13 10 -16 6 -3 10 -2 10 4 0 5 -4 13 -10 16 -5
3 -10 2 -10 -4z"/>
<path d="M5290 1171 c0 -17 5 -31 10 -31 6 0 10 11 10 24 0 14 -4 28 -10 31
-6 4 -10 -7 -10 -24z"/>
<path d="M5296 1111 c-8 -13 -3 -61 6 -61 4 0 8 16 8 35 0 35 -4 43 -14 26z"/>
<path d="M2353 7343 c9 -2 25 -2 35 0 9 3 1 5 -18 5 -19 0 -27 -2 -17 -5z"/>
<path d="M2448 7343 c6 -2 18 -2 25 0 6 3 1 5 -13 5 -14 0 -19 -2 -12 -5z"/>
<path d="M5488 7293 c12 -2 30 -2 40 0 9 3 -1 5 -23 4 -22 0 -30 -2 -17 -4z"/>
<path d="M5608 7283 c12 -2 30 -2 40 0 9 3 -1 5 -23 4 -22 0 -30 -2 -17 -4z"/>
</g>
</svg>
